<?xml version="1.0" encoding="UTF-8" standalone="no"?>
<!DOCTYPE svg PUBLIC "-//W3C//DTD SVG 1.1//EN" "http://www.w3.org/Graphics/SVG/1.1/DTD/svg11.dtd">
<svg width="100%" height="100%" viewBox="0 0 348 83" version="1.1" xmlns="http://www.w3.org/2000/svg" xmlns:xlink="http://www.w3.org/1999/xlink" xml:space="preserve" xmlns:serif="http://www.serif.com/" style="fill-rule:evenodd;clip-rule:evenodd;stroke-linejoin:round;stroke-miterlimit:2;">
    <g transform="matrix(1,0,0,1,306.475,0.387)">
        <path d="M0,82.226L-264.95,82.226C-287.656,82.226 -306.063,63.819 -306.063,41.113C-306.063,18.407 -287.656,0 -264.95,0L0,0C22.706,0 41.113,18.407 41.113,41.113C41.113,63.819 22.706,82.226 0,82.226" style="fill:rgb(0,0,51);fill-rule:nonzero;"/>
    </g>
    <g transform="matrix(1,0,0,1,190.415,62.0731)">
        <path d="M0,-9.557C-0.104,-10.187 -0.438,-10.737 -0.937,-11.101C-1.442,-11.475 -2.055,-11.62 -2.66,-11.511C-3.265,-11.404 -3.794,-11.06 -4.152,-10.539C-7.606,-5.5 -13.222,-2.49 -19.172,-2.487C-25.143,-2.504 -30.764,-5.508 -34.209,-10.525C-34.949,-11.596 -36.39,-11.849 -37.426,-11.084C-38.461,-10.319 -38.702,-8.824 -37.966,-7.752C-33.66,-1.483 -26.662,2.272 -19.245,2.292L-19.176,2.292C-11.731,2.288 -4.71,-1.474 -0.39,-7.776C-0.038,-8.295 0.102,-8.926 0,-9.557" style="fill:rgb(247,247,249);fill-rule:nonzero;"/>
    </g>
    <g transform="matrix(1,0,0,1,257.646,35.9566)">
        <path d="M0,9.059C-0.624,7.565 -1.49,6.282 -2.577,5.244C-3.414,4.446 -4.378,3.795 -5.453,3.303C-5.412,3.272 -5.372,3.241 -5.334,3.209C-3.942,2.082 -2.874,0.635 -2.158,-1.094C-1.458,-2.787 -1.104,-4.561 -1.104,-6.367C-1.104,-9.831 -2.164,-12.64 -4.256,-14.719C-6.334,-16.78 -9.112,-17.825 -12.513,-17.825L-28.226,-17.825C-28.842,-17.825 -29.4,-17.58 -29.841,-17.12C-30.286,-16.659 -30.521,-16.08 -30.521,-15.446L-30.521,-6.867C-30.522,-6.85 -30.526,-6.834 -30.526,-6.817L-30.526,-0.769C-30.526,-0.149 -30.305,0.419 -29.896,0.865C-29.456,1.35 -28.861,1.608 -28.176,1.608C-27.554,1.608 -26.982,1.366 -26.517,0.902C-26.062,0.44 -25.821,-0.138 -25.821,-0.769L-25.821,-4.605L-25.815,-4.605L-25.815,-13.071L-12.805,-13.071C-10.515,-13.071 -8.757,-12.462 -7.579,-11.259C-6.39,-10.041 -5.812,-8.46 -5.812,-6.427C-5.812,-3.749 -6.479,-1.732 -7.795,-0.433C-9.153,0.903 -10.798,1.57 -12.805,1.607L-13.054,1.607L-18.552,1.57C-19.149,1.57 -19.697,1.797 -20.128,2.216C-20.597,2.665 -20.845,3.274 -20.845,3.975C-20.845,4.612 -20.611,5.196 -20.164,5.672C-19.718,6.138 -19.16,6.384 -18.552,6.384L-13.054,6.42L-12.394,6.42C-10.727,6.42 -9.199,6.708 -7.854,7.277C-6.577,7.816 -5.598,8.634 -4.862,9.778C-4.134,10.909 -3.766,12.42 -3.766,14.273C-3.766,17.055 -4.533,18.997 -6.114,20.21C-7.779,21.484 -9.892,22.13 -12.394,22.13L-25.815,22.13L-25.815,9.827L-25.821,9.827L-25.821,8.821C-25.821,8.201 -26.043,7.633 -26.452,7.187C-26.892,6.702 -27.487,6.444 -28.173,6.444C-28.795,6.444 -29.365,6.686 -29.831,7.15C-30.286,7.612 -30.526,8.19 -30.526,8.821L-30.526,14.869C-30.526,14.887 -30.522,14.904 -30.521,14.922L-30.521,24.504C-30.521,25.137 -30.286,25.716 -29.837,26.183C-29.39,26.642 -28.833,26.884 -28.226,26.884L-12.103,26.884C-10.362,26.884 -8.696,26.632 -7.153,26.134C-5.57,25.624 -4.162,24.836 -2.968,23.795C-1.753,22.743 -0.787,21.403 -0.094,19.811C0.593,18.231 0.94,16.368 0.94,14.273C0.94,12.308 0.624,10.553 0,9.059" style="fill:rgb(247,247,249);fill-rule:nonzero;"/>
    </g>
    <g transform="matrix(1,0,0,1,103.764,18.1274)">
        <path d="M0,19.437C-0.684,19.437 -1.277,19.173 -1.717,18.675C-2.128,18.215 -2.346,17.636 -2.346,17.002L-2.346,4.747L-14.157,4.747C-14.76,4.747 -15.316,4.522 -15.768,4.096C-16.25,3.633 -16.505,3.037 -16.505,2.372C-16.505,1.698 -16.249,1.103 -15.766,0.65C-15.323,0.225 -14.767,0 -14.157,0L14.161,0C14.767,0 15.324,0.226 15.774,0.653C16.254,1.105 16.508,1.699 16.508,2.372C16.508,3.296 16.086,3.854 15.733,4.16C15.288,4.544 14.744,4.747 14.161,4.747L2.351,4.747L2.351,17.002C2.351,17.649 2.11,18.242 1.656,18.714C1.194,19.187 0.622,19.437 0,19.437" style="fill:rgb(247,247,249);fill-rule:nonzero;"/>
    </g>
    <g transform="matrix(1,0,0,1,103.765,42.4007)">
        <path d="M0,20.443C-0.685,20.443 -1.278,20.179 -1.718,19.681C-2.13,19.221 -2.347,18.642 -2.347,18.008L-2.348,2.435C-2.348,1.788 -2.107,1.195 -1.653,0.723C-1.191,0.25 -0.619,0 0.002,0C0.687,0 1.28,0.264 1.72,0.762C2.131,1.222 2.349,1.801 2.349,2.435L2.349,18.008C2.349,18.656 2.108,19.249 1.654,19.72C1.192,20.193 0.62,20.443 0,20.443" style="fill:rgb(247,247,249);fill-rule:nonzero;"/>
    </g>
    <g transform="matrix(1,0,0,1,51.1646,50.1691)">
        <path d="M0.786,-31.365C0.34,-31.815 -0.24,-32.055 -0.841,-32.041C-12.799,-31.939 -22.574,-22.539 -23.579,-10.176C-23.862,-6.717 -23.432,-3.317 -22.301,-0.075C-21.998,0.799 -21.226,1.415 -20.332,1.496C-19.996,1.526 -19.651,1.479 -19.351,1.362C-18.771,1.147 -18.309,0.71 -18.044,0.128C-17.784,-0.449 -17.755,-1.096 -17.964,-1.696C-18.867,-4.287 -19.211,-7.005 -18.985,-9.775C-18.181,-19.663 -10.363,-27.181 -0.801,-27.262C-0.186,-27.267 0.392,-27.522 0.823,-27.977C1.255,-28.433 1.489,-29.035 1.484,-29.669C1.479,-30.313 1.231,-30.915 0.786,-31.365" style="fill:rgb(247,247,249);fill-rule:nonzero;"/>
    </g>
    <g transform="matrix(1,0,0,1,296.012,50.1691)">
        <path d="M-1.484,-29.669C-1.49,-29.035 -1.256,-28.433 -0.824,-27.977C-0.393,-27.522 0.185,-27.267 0.8,-27.262C10.363,-27.181 18.18,-19.663 18.984,-9.775C19.21,-7.005 18.866,-4.287 17.963,-1.696C17.754,-1.096 17.783,-0.449 18.043,0.128C18.308,0.71 18.771,1.147 19.35,1.362C19.651,1.479 19.995,1.526 20.331,1.496C21.225,1.415 21.997,0.799 22.3,-0.075C23.431,-3.317 23.862,-6.717 23.578,-10.176C22.573,-22.539 12.798,-31.939 0.841,-32.041C0.239,-32.055 -0.341,-31.815 -0.786,-31.365C-1.232,-30.915 -1.48,-30.313 -1.484,-29.669" style="fill:rgb(247,247,249);fill-rule:nonzero;"/>
    </g>
</svg>
